HIERARCHY
ROOT Hips
{
  OFFSET 0 0 0
  CHANNELS 6 Xposition Yposition Zposition Zrotation Yrotation Xrotation
  JOINT LeftThigh
  {
    OFFSET 8.409438 0 -5.917753
    CHANNELS 3 Zrotation Yrotation Xrotation
    JOINT LeftLeg
    {
      OFFSET 0 0 -42.358652
      CHANNELS 3 Zrotation Yrotation Xrotation
      JOINT LeftFoot
      {
        OFFSET 0 0 -39.357303
        CHANNELS 3 Zrotation Yrotation Xrotation
      }
    }
  }
  JOINT RightThigh
  {
    OFFSET -8.409438 0 -5.917753
    CHANNELS 3 Zrotation Yrotation Xrotation
    JOINT RightLeg
    {
      OFFSET 0 0 -42.358652
      CHANNELS 3 Zrotation Yrotation Xrotation
      JOINT RightFoot
      {
        OFFSET 0 0 -39.357303
        CHANNELS 3 Zrotation Yrotation Xrotation
      }
    }
  }
  JOINT SpineLow
  {
    OFFSET 0 0 4.719101
    CHANNELS 3 Zrotation Yrotation Xrotation
    JOINT SpineMid
    {
      OFFSET 0 0 12.899191
      CHANNELS 3 Zrotation Yrotation Xrotation
      JOINT Chest
      {
        OFFSET 0 0 12.899191
        CHANNELS 3 Zrotation Yrotation Xrotation
        JOINT LeftShoulder
        {
          OFFSET 7.550562 1.41573 9.438202
          CHANNELS 3 Zrotation Yrotation Xrotation
          JOINT LeftArm
          {
            OFFSET 9.155056 0 4.247191
            CHANNELS 3 Zrotation Yrotation Xrotation
            JOINT LeftForearm
            {
              OFFSET 0 0 25.771955
              CHANNELS 3 Zrotation Yrotation Xrotation
              JOINT LeftHand
              {
                OFFSET 0 0 25.197169
                CHANNELS 3 Zrotation Yrotation Xrotation
              }
            }
          }
        }
        JOINT RightShoulder
        {
          OFFSET -7.550562 1.41573 9.438202
          CHANNELS 3 Zrotation Yrotation Xrotation
          JOINT RightArm
          {
            OFFSET -9.155056 0 4.247191
            CHANNELS 3 Zrotation Yrotation Xrotation
            JOINT RightForearm
            {
              OFFSET 0 0 -25.771955
              CHANNELS 3 Zrotation Yrotation Xrotation
              JOINT RightHand
              {
                OFFSET 0 0 -25.197169
                CHANNELS 3 Zrotation Yrotation Xrotation
              }
            }
          }
        }
        JOINT Neck
        {
          OFFSET 0 0 15.101124
          CHANNELS 3 Zrotation Yrotation Xrotation
          JOINT Head
          {
            OFFSET 0 0 11.325843
            CHANNELS 3 Zrotation Yrotation Xrotation
            End Site
            {
              OFFSET 0 0 14.157303
            }
          }
        }
      }
    }
  }
}
MOTION
Frames: 7
Frame Time: 0.0
0.0  89.887642  0.0  9.303502  -53.794523  -109.810539  35.928279  -39.853899  -32.627697  18.002106  42.436946  72.126148  18.688872  13.701676  10.108317  -25.338742  20.528417  -29.849187  16.99758  9.227929  61.218031  5.790177  3.783112  -1.247416  1.045706  0.269316  0.897207  2.86797  0.697089  2.463628  2.86797  0.697089  2.463628  -3.969294  20.267758  16.394046  -120.493154  49.309497  -98.614037  -39.38329  11.784399  73.220821  80.931137  -8.139458  -2.122085  -0.719805  3.543393  31.357744  134.741825  44.611046  57.093966  -19.194626  -11.367876  -77.525681  99.609989  -3.13366  -20.338945  10.34583  1.726368  8.981713  7.735404  1.447709  6.708833  
0.0  89.887642  0.0  9.174469  -53.525043  -109.758961  35.663247  -39.905588  -32.726229  17.927634  42.30952  72.228818  18.527328  13.549035  10.081208  -26.547637  20.206745  -29.905108  17.659352  9.273858  61.092671  5.865103  3.874356  -1.099833  0.993188  0.250395  0.8758  2.723518  0.648235  2.403801  2.723518  0.648235  2.403801  -3.720601  20.420321  16.640996  -120.619407  49.258347  -98.50908  -39.409607  11.926318  73.308006  80.939417  -8.09623  -2.142858  -0.688512  3.575239  31.471555  135.110596  44.367775  57.247459  -19.023491  -11.344283  -77.44938  99.316069  -3.348447  -19.941117  10.373626  1.807215  8.999785  7.754964  1.509099  6.720903  
0.0  89.887642  0.0  9.025147  -53.308374  -109.684143  35.474993  -39.970945  -32.785272  17.705835  42.230654  72.165675  18.554001  13.546892  10.16241  -27.0246  20.038043  -29.864153  17.934382  9.285648  61.114132  5.807522  3.900406  -0.937752  0.996549  0.241589  0.87427  2.732366  0.624113  2.399284  2.732366  0.624113  2.399283  -3.84936  20.474643  16.71372  -120.718361  49.218299  -98.48698  -39.441736  12.005264  73.336629  80.8681  -8.132426  -2.090747  -0.699799  3.575237  31.504864  135.125086  44.307499  57.298519  -19.104086  -11.314652  -77.441367  99.143391  -3.522817  -19.82093  10.266996  1.823275  8.98315  7.674771  1.519287  6.708412  
0.0  89.887642  0.0  8.965708  -53.18249  -109.646995  35.308034  -40.003729  -32.841091  17.685374  42.037025  72.244049  18.366766  13.392141  10.119876  -28.22274  19.642038  -29.972336  18.798232  9.100833  60.986468  5.855767  4.03969  -0.846094  1.00784  0.236645  0.866648  2.762975  0.610514  2.378348  2.762975  0.610514  2.378347  -3.910533  20.519219  16.782883  -120.860254  49.215966  -98.413484  -39.471764  12.004825  73.337981  80.853528  -8.113111  -2.099487  -0.753777  3.536172  31.569939  135.368188  44.100476  57.450402  -19.183804  -11.337496  -77.319902  99.045741  -3.600977  -19.702347  10.122851  1.838546  8.938608  7.566522  1.527869  6.675102  
0.0  89.887642  0.0  8.863663  -53.052697  -109.563126  35.139434  -40.060441  -32.873342  17.534009  41.930481  72.146608  18.401629  13.386682  10.191513  -28.269425  19.574437  -29.819607  18.802986  9.036398  61.000359  5.791677  4.071983  -0.722636  1.026814  0.233314  0.856557  2.814623  0.601156  2.350792  2.814623  0.601156  2.350792  -4.009342  20.520272  16.847853  -121.034832  49.216645  -98.434748  -39.475132  11.982529  73.355356  80.860392  -8.100962  -2.082595  -0.759043  3.520954  31.648816  135.370064  44.036974  57.512404  -19.219894  -11.253791  -77.338591  98.912931  -3.722432  -19.690009  9.988081  1.815821  8.956482  7.465731  1.509124  6.689244  
0.0  89.887642  0.0  8.864444  -52.982002  -109.541115  34.940439  -40.10647  -32.822952  17.762724  41.609344  72.31427  18.133314  13.165242  10.108738  -28.517883  19.462238  -29.687057  19.092039  8.954055  60.899055  5.859911  4.262894  -0.69438  1.054188  0.241898  0.858997  2.889771  0.623528  2.358077  2.889771  0.623528  2.358077  -4.145261  20.456344  16.80279  -121.218811  49.225597  -98.424636  -39.440482  11.93188  73.387863  80.911799  -8.015797  -2.12419  -0.788165  3.409013  31.702544  135.526555  43.891899  57.686283  -19.693137  -11.337386  -77.147751  98.994734  -3.724665  -19.992806  9.794789  1.792397  8.881847  7.321284  1.487489  6.634139  
0.0  89.887642  0.0  8.809431  -52.936075  -109.49285  34.766226  -40.202502  -32.74437  17.692842  41.477517  72.146663  18.19481  13.150038  10.190489  -28.071658  19.537552  -29.401972  18.696425  9.0427  60.949864  5.78416  4.289138  -0.662069  1.068425  0.244479  0.867836  2.928856  0.62968  2.382476  2.928856  0.62968  2.382476  -4.164668  20.412121  16.727839  -121.409469  49.239513  -98.468492  -39.409087  11.858738  73.390701  80.912793  -8.007984  -2.079604  -0.717926  3.374852  31.65151  135.501844  43.848779  57.708562  -19.595422  -11.374604  -77.137993  98.993299  -3.787361  -19.989214  9.702744  1.773155  8.856998  7.252592  1.471306  6.616048  
